#define 2dir_width 40
#define 2dir_height 16
static char 2dir_bits[] = {
 0x00,0x00,0x00,0x00,0x00,0x00,0x00,0x00,0x3c,0x00,0x00,0x00,0x00,0xf8,0x00,
 0xc0,0xff,0xff,0xff,0x03,0xc0,0xff,0xff,0xff,0x03,0x00,0x00,0x00,0xf8,0x00,
 0x00,0x00,0x00,0x3c,0x00,0x00,0x00,0x00,0x00,0x00,0x00,0x00,0x00,0x00,0x00,
 0x00,0x3c,0x00,0x00,0x00,0x00,0x1f,0x00,0x00,0x00,0xc0,0xff,0xff,0xff,0x03,
 0xc0,0xff,0xff,0xff,0x03,0x00,0x1f,0x00,0x00,0x00,0x00,0x3c,0x00,0x00,0x00,
 0x00,0x00,0x00,0x00,0x00};
