#define fwd_width 30
#define fwd_height 15
static char fwd_bits[] = {
 0x00,0x00,0x00,0xc0,0x00,0x00,0x00,0xc0,0x00,0x00,0x00,0xc0,0xc0,0x00,0x03,
 0xc0,0xc0,0x03,0x0f,0xc0,0xc0,0x0f,0x3f,0xc0,0xc0,0x3f,0xff,0xc0,0xc0,0x7f,
 0xff,0xc1,0xc0,0x3f,0xff,0xc0,0xc0,0x0f,0x3f,0xc0,0xc0,0x03,0x0f,0xc0,0xc0,
 0x00,0x03,0xc0,0x00,0x00,0x00,0xc0,0x00,0x00,0x00,0xc0,0x00,0x00,0x00,0xc0
 };
