#define loop_width 40
#define loop_height 16
static char loop_bits[] = {
 0x00,0x00,0x00,0x00,0x00,0x00,0x00,0x00,0x3c,0x00,0x00,0x00,0x00,0xf8,0x00,
 0xc0,0xff,0xff,0xff,0x03,0xc0,0xff,0xff,0xff,0x03,0x00,0x00,0x00,0xf8,0x00,
 0xc0,0x00,0x00,0x3c,0x02,0xc0,0x00,0x00,0x00,0x03,0xc0,0x00,0x00,0x00,0x03,
 0x00,0x00,0x78,0x00,0x00,0xc0,0x00,0x3e,0x00,0x03,0x80,0x9f,0xff,0xfc,0x01,
 0x00,0x9f,0xff,0xfc,0x00,0x00,0x00,0x3e,0x00,0x00,0x00,0x00,0x78,0x00,0x00,
 0x00,0x00,0x00,0x00,0x00};
