#define playr_width 30
#define playr_height 15
static char playr_bits[] = {
 0x00,0x00,0x00,0xc0,0x00,0x00,0x00,0xc0,0x00,0x00,0x00,0xc0,0x00,0x00,0x06,
 0xc0,0x00,0x80,0x07,0xc0,0x00,0xe0,0x07,0xc0,0x00,0xf8,0x07,0xc0,0x00,0xfc,
 0x07,0xc0,0x00,0xf8,0x07,0xc0,0x00,0xe0,0x07,0xc0,0x00,0x80,0x07,0xc0,0x00,
 0x00,0x06,0xc0,0x00,0x00,0x00,0xc0,0x00,0x00,0x00,0xc0,0x00,0x00,0x00,0xc0
 };
