#define play_width 30
#define play_height 15
static char play_bits[] = {
 0x00,0x00,0x00,0xc0,0x00,0x00,0x00,0xc0,0x00,0x00,0x00,0xc0,0x00,0x18,0x00,
 0xc0,0x00,0x78,0x00,0xc0,0x00,0xf8,0x01,0xc0,0x00,0xf8,0x07,0xc0,0x00,0xf8,
 0x0f,0xc0,0x00,0xf8,0x07,0xc0,0x00,0xf8,0x01,0xc0,0x00,0x78,0x00,0xc0,0x00,
 0x18,0x00,0xc0,0x00,0x00,0x00,0xc0,0x00,0x00,0x00,0xc0,0x00,0x00,0x00,0xc0
 };
