#define rew_width 30
#define rew_height 15
static char rew_bits[] = {
 0x00,0x00,0x00,0xc0,0x00,0x00,0x00,0xc0,0x00,0x00,0x00,0xc0,0x00,0x30,0xc0,
 0xc0,0x00,0x3c,0xf0,0xc0,0x00,0x3f,0xfc,0xc0,0xc0,0x3f,0xff,0xc0,0xe0,0xbf,
 0xff,0xc0,0xc0,0x3f,0xff,0xc0,0x00,0x3f,0xfc,0xc0,0x00,0x3c,0xf0,0xc0,0x00,
 0x30,0xc0,0xc0,0x00,0x00,0x00,0xc0,0x00,0x00,0x00,0xc0,0x00,0x00,0x00,0xc0
 };
