#define step_width 30
#define step_height 15
static char step_bits[] = {
 0x00,0x00,0x00,0xc0,0x00,0x00,0x00,0xc0,0x00,0x00,0x00,0xc0,0x80,0x01,0x36,
 0xc0,0x80,0x07,0x36,0xc0,0x80,0x1f,0x36,0xc0,0x80,0x7f,0x36,0xc0,0x80,0xff,
 0x36,0xc0,0x80,0x7f,0x36,0xc0,0x80,0x1f,0x36,0xc0,0x80,0x07,0x36,0xc0,0x80,
 0x01,0x36,0xc0,0x00,0x00,0x00,0xc0,0x00,0x00,0x00,0xc0,0x00,0x00,0x00,0xc0
 };
