#define stepr_width 30
#define stepr_height 15
static char stepr_bits[] = {
 0x00,0x00,0x00,0xc0,0x00,0x00,0x00,0xc0,0x00,0x00,0x00,0xc0,0x00,0x1b,0x60,
 0xc0,0x00,0x1b,0x78,0xc0,0x00,0x1b,0x7e,0xc0,0x00,0x9b,0x7f,0xc0,0x00,0xdb,
 0x7f,0xc0,0x00,0x9b,0x7f,0xc0,0x00,0x1b,0x7e,0xc0,0x00,0x1b,0x78,0xc0,0x00,
 0x1b,0x60,0xc0,0x00,0x00,0x00,0xc0,0x00,0x00,0x00,0xc0,0x00,0x00,0x00,0xc0
 };
