#define stop_width 30
#define stop_height 15
static char stop_bits[] = {
 0x00,0x00,0x00,0xc0,0x00,0x00,0x00,0xc0,0x00,0x00,0x00,0xc0,0x00,0xfe,0x1f,
 0xc0,0x00,0xfe,0x1f,0xc0,0x00,0xfe,0x1f,0xc0,0x00,0xfe,0x1f,0xc0,0x00,0xfe,
 0x1f,0xc0,0x00,0xfe,0x1f,0xc0,0x00,0xfe,0x1f,0xc0,0x00,0xfe,0x1f,0xc0,0x00,
 0xfe,0x1f,0xc0,0x00,0x00,0x00,0xc0,0x00,0x00,0x00,0xc0,0x00,0x00,0x00,0xc0
 };
